# xmcd
# 
# Track frame offsets:
#     150
#     14860
#     39628
#     62422
#     79407
#     106277
#     145047
#     160072
#     187150
#     206461
#     220973
#     235787
#     249691
# 
# Disc length: 3600
# 
# Revision: 3
# Processed by: cddbd v1.5.2PL0 Copyright (c) Steve Scherf et al.
# Submitted via: BonkEnc v1.0
# 
DISCID=ba0e0e0d
DTITLE=Various Artist - Bar Jazz 6 [CD 1) - Happy Hour
DYEAR=0
DGENRE=Jazz
TTITLE0=De-Phazz - The Mambo Craze
TTITLE1=Herbie Hancock - Cantaloupe Island
TTITLE2=Spyro Gyra - Cafe Amore
TTITLE3=Candy Dulfer  - Pee Wee
TTITLE4=Deodato - September 13
TTITLE5=Ray Barretto - Pastime Paradise
TTITLE6=Count Basie - Cheek To Cheek
TTITLE7=Lionel Hampton - Hey! Ba-Ba-Re-Bop/Hamp´s Boogie Woogie
TTITLE8=Woody Herman - Four Brothers
TTITLE9=Gelnn Miller and His Orchestra - A String Of Pearls
TTITLE10=Shorty Rogers and His Giants - Short Stop
TTITLE11=Teddy Hill and His NBC Orchestra - King Porter Stomp
TTITLE12=The Big 18 - Tuxedo Junction
EXTD=
EXTT0=
EXTT1=
EXTT2=
EXTT3=
EXTT4=
EXTT5=
EXTT6=
EXTT7=
EXTT8=
EXTT9=
EXTT10=
EXTT11=
EXTT12=
PLAYORDER=
